# AST/ASF file generated using VICON BodyLanguage
# -----------------------------------------------
:version 1.10
:name VICON
:units
  mass 1.0
  length 0.45
  angle deg
:documentation
   .ast/.asf automatically generated from VICON data using
   VICON BodyBuilder and BodyLanguage model FoxedUp or BRILLIANT.MOD
:root
   order TX TY TZ RX RY RZ
   axis XYZ
   position 0 0 0  
   orientation 0 0 0 
:bonedata
  begin
     id 1 
     name lhipjoint
     direction 0.567149 -0.783011 0.255413 
     length 2.28399 
     axis 0 0 0  XYZ
  end
  begin
     id 2 
     name lfemur
     direction 0.34202 -0.939693 0  
     length 7.34031  
     axis 0 0 20  XYZ
    dof rx ry rz
    limits (-160.0 20.0)
           (-70.0 70.0)
           (-60.0 70.0)
  end
  begin
     id 3 
     name ltibia
     direction 0.34202 -0.939693 0   
     length 6.9833   
     axis 0 0 20   XYZ
    dof rx
    limits (-10.0 170.0)
  end
  begin
     id 4 
     name lfoot
     direction 0.136498 -0.375025 0.91691   
     length 2.33665   
     axis -90 7.62852e-016 20   XYZ
    dof rx rz
    limits (-45.0 90.0)
           (-70.0 20.0)
  end
  begin
     id 5 
     name ltoes
     direction 1.5367e-011 -4.21617e-011 1   
     length 1.15039   
     axis -90 7.62852e-016 20   XYZ
    dof rx
    limits (-90.0 20.0)
  end
  begin
     id 6 
     name rhipjoint
     direction -0.602854 -0.758518 0.247423   
     length 2.35775  
     axis 0 0 0  XYZ 
  end
  begin
     id 7 
     name rfemur
     direction -0.34202 -0.939693 0   
     length 7.43932   
     axis 0 0 -20   XYZ
    dof rx ry rz
    limits (-160.0 20.0)
           (-70.0 70.0)
           (-70.0 60.0)
  end
  begin
     id 8 
     name rtibia
     direction -0.34202 -0.939693 0   
     length 7.11893   
     axis 0 0 -20   XYZ
    dof rx
    limits (-10.0 170.0)
 end
 begin
     id 9 
     name rfoot
     direction -0.131771 -0.362037 0.922803   
     length 2.53019  
     axis -90 -7.62852e-016 -20   XYZ
    dof rx rz
    limits (-45.0 90.0)
           (-20.0 70.0)
  end
  begin
     id 10 
     name rtoes
     direction -1.53733e-011 -4.21932e-011 1   
     length 1.24596   
     axis -90 -7.62852e-016 -20   XYZ
    dof rx
    limits (-90.0 20.0)
  end
  begin
     id 11 
     name lowerback
     direction 0.0235427 0.999023 -0.0374125   
     length 2.21768   
     axis 0 0 0   XYZ
    dof rx ry rz
    limits (-20.0 45.0)
           (-30.0 30.0)
           (-30.0 30.0)
  end
  begin
     id 12 
     name upperback
     direction 0.0302156 0.996818 -0.073759   
     length 2.20352   
     axis 0 0 0   XYZ
    dof rx ry rz
    limits (-20.0 45.0)
           (-30.0 30.0)
           (-30.0 30.0)
  end
  begin
     id 13 
     name thorax
     direction 0.0187169 0.998235 -0.0563532   
     length 2.22103   
     axis 0 0 0   XYZ
    dof rx ry rz
    limits (-20.0 45.0)
           (-30.0 30.0)
           (-30.0 30.0)
  end
  begin
     id 14 
     name lowerneck
     direction -0.119528 0.987423 0.103481   
     length 1.72948   
     axis 0 0 0   XYZ
    dof rx ry rz
    limits (-20.0 45.0)
           (-30.0 30.0)
           (-30.0 30.0)
  end
  begin
     id 15 
     name upperneck
     direction 0.248049 0.963095 -0.104496   
     length 1.74979   
     axis 0 0 0   XYZ
    dof rx ry rz
    limits (-20.0 45.0)
           (-30.0 30.0)
           (-30.0 30.0)
  end
  begin
     id 16
     name head
     direction 0.0903589 0.994284 -0.056876  
     length 1.78268  
     axis 0 0 0   XYZ
    dof rx ry rz
    limits (-20.0 45.0)
           (-30.0 30.0)
           (-30.0 30.0)
  end
  begin
     id 17 
     name lclavicle
     direction 0.946008 0.242039 -0.215608  
     length 3.80783  
     axis 0 0 0   XYZ
    dof ry rz
    limits (-20.0 10.0)
           (0.0 20.0)
  end
  begin
     id 18 
     name lhumerus
     direction 1 -4.48991e-011 -2.25695e-027   
     length 4.83125   
     axis 180 -30 -90   XYZ
    dof rx ry rz
    limits (-60.0 90.0)
           (-90.0 90.0)
           (-90.0 90.0)
  end
  begin
     id 19
     name lradius
     direction 0.999991 0.00366712 -0.00211721   
     length 3.00391   
     axis 180 -30 -90   XYZ
    dof rx
    limits (-10.0 170.0)
  end
  begin
     id 20
     name lwrist
     direction 0.999991 0.00393016 -0.00141978   
     length 1.50195   
     axis -1.00488e-014 90 90   XYZ
    dof ry
    limits (-180.0 0.0)
 end
  begin
     id 21 
     name lhand
     direction 1 -4.49123e-011 2.72098e-026   
     length 1.2717   
     axis -1.73687e-014 90 90   XYZ
    dof rx rz
    limits (-90.0 90.0)
           (-45.0 45.0)
  end
  begin
     id 22 
     name lfingers
     direction 1 -4.48678e-011 5.4479e-026   
     length 1.02528   
     axis -3.47372e-014 90 90   XYZ
    dof rx
    limits (0.0 90.0)
  end
  begin
     id 23
     name lthumb
     direction 0.707107 -6.34851e-011 0.707107   
     length 1.4721   
     axis -90 45 -1.62303e-014   XYZ
    dof rx rz
    limits (-45.0 45.0)
           (-45.0 45.0)
  end
  begin
     id 24 
     name rclavicle
     direction -0.981723 0.189447 -0.0181673   
     length 3.74989  
     axis 0 0 0   XYZ 
    dof ry rz
    limits (-10.0 20.0)
           (-20.0 0.0)
  end
  begin
     id 25 
     name rhumerus
     direction -1 -4.48985e-011 2.38206e-027  
     length 4.61118   
     axis 180 30 90   XYZ
    dof rx ry rz
    limits (-90.0 60.0)
           (-90.0 90.0)
           (-90.0 90.0)
  end
  begin
     id 26 
     name rradius
     direction -1 -4.48977e-011 7.41019e-027   
     length 2.91491   
     axis 180 30 90   XYZ
    dof rx
    limits (-10.0 170.0)
  end
  begin
     id 27 
     name rwrist
     direction -1 -4.48549e-011 1.3624e-026   
     length 1.45745   
     axis -1.00488e-014 -90 -90   XYZ
    dof ry
    limits (-180.0 0.0)
  end
  begin
     id 28
     name rhand
     direction -1 -4.49107e-011 2.72109e-026   
     length 1.30769   
     axis -1.73687e-014 -90 -90   XYZ
    dof rx rz
    limits (-90.0 90.0)
           (-45.0 45.0)
  end
  begin
     id 29
     name rfingers
     direction -1 -4.48919e-011 5.44468e-026   
     length 1.05429   
     axis -3.47372e-014 -90 -90   XYZ
    dof rx
    limits (0.0 90.0)
  end
  begin
     id 30
     name rthumb
     direction -0.707107 -6.35315e-011 0.707107   
     length 1.51376   
     axis -90 -45 1.62303e-014   XYZ
    dof rx rz
    limits (-45.0 45.0)
           (-45.0 45.0)
  end
:hierarchy
  begin
    root lhipjoint rhipjoint lowerback
    lhipjoint lfemur
    lfemur ltibia
    ltibia lfoot
    lfoot ltoes
    rhipjoint rfemur
    rfemur rtibia
    rtibia rfoot
    rfoot rtoes
    lowerback upperback
    upperback thorax
    thorax lowerneck lclavicle rclavicle
    lowerneck upperneck
    upperneck head
    lclavicle lhumerus
    lhumerus lradius
    lradius lwrist
    lwrist lhand lthumb
    lhand lfingers
    rclavicle rhumerus
    rhumerus rradius
    rradius rwrist
    rwrist rhand rthumb
    rhand rfingers
  end

#!OML:ASF X:\für Bonn\!DataBase\2005_08_11_Bastian_Final\c3d\Bastian.ASF
:FULLY-SPECIFIED
:DEGREES
16
root 1.67502 16.9683 18.4206 719.191 5.32086 -2.47826
lowerback -3.73252 -2.65414 -1.86874
upperback 0.612943 -3.45317 0.0712525
thorax 2.83557 -1.75124 0.903963
lowerneck -3.83834 -2.45157 -3.05486
upperneck 2.14808 -3.37947 7.95745
head 1.56655 -1.57338 3.01492
rclavicle 1.6847e-014 0
rhumerus -42.499 25.713 -90.0617
rradius 80.6584
rwrist 2.48102
rhand -23.9089 22.4201
rfingers 7.12502
rthumb 2.56535 -7.54424
lclavicle 1.6847e-014 0
lhumerus -23.1348 -0.242037 75.8148
lradius 89.1471
lwrist 210.569
lhand -37.992 22.7338
lfingers 7.12502
lthumb -11.0316 52.4239
rfemur -2.89802 -1.94112 24.7265
rtibia 48.448
rfoot -21.6768 4.18044
rtoes -28.8591
lfemur -3.59521 0.10629 -11.8455
ltibia 52.3279
lfoot -8.05043 -10.5415
ltoes -32.3227
17
root 1.64607 17.2899 18.7266 719.377 5.71307 -2.4895
lowerback -5.2574 -3.01115 -2.22286
upperback 0.0731482 -3.87845 0.110857
thorax 3.17444 -1.96529 1.04617
lowerneck -2.24611 -2.21555 -3.22473
upperneck 2.68804 -3.11276 8.0821
head 1.44672 -1.46462 3.10925
rclavicle 1.88597e-014 -1.11319e-014
rhumerus -43.4277 26.9355 -90.1237
rradius 83.2721
rwrist 2.00245
rhand -23.2702 22.8084
rfingers 7.12502
rthumb 3.18212 -7.14761
lclavicle 1.88597e-014 -1.11319e-014
lhumerus -23.7609 -0.498535 75.0141
lradius 93.1828
lwrist 211.467
lhand -38.4416 22.6035
lfingers 7.12502
lthumb -11.4652 52.27
rfemur -1.15033 -1.62229 24.9877
rtibia 45.3006
rfoot -18.4866 3.93977
rtoes -35.114
lfemur -2.419 -0.314581 -11.6369
ltibia 49.7397
lfoot -2.83794 -10.4076
ltoes -34.0217
18
root 1.61361 17.6121 19.0097 719.416 6.16972 -2.04809
lowerback -6.35965 -3.32889 -3.11558
upperback -0.346066 -4.20749 0.023053
thorax 3.4289 -2.13824 1.3718
lowerneck -0.720328 -2.05366 -3.39585
upperneck 3.12716 -2.9459 8.27753
head 1.31382 -1.4062 3.22423
rclavicle -8.35144e-014 1.19271e-015
rhumerus -44.277 27.7869 -90.0452
rradius 85.998
rwrist 1.84164
rhand -22.32 22.7081
rfingers 7.12502
rthumb 4.09975 -7.23219
lclavicle -8.35144e-014 1.19271e-015
lhumerus -24.1118 -0.837557 74.2609
lradius 96.9038
lwrist 212.28
lhand -39.0091 21.9582
lfingers 7.12502
lthumb -12.0124 51.5935
rfemur 0.33941 -1.03331 24.9109
rtibia 42.7242
rfoot -14.9005 3.39305
rtoes -40.9063
lfemur -1.43536 -0.722398 -11.9512
ltibia 47.7054
lfoot 2.34728 -10.3802
ltoes -36.2404
19
root 1.58007 17.928 19.2776 719.531 6.65944 -1.9285
lowerback -7.40059 -3.58105 -3.62918
upperback -0.67235 -4.46211 -0.042367
thorax 3.71948 -2.2692 1.50958
lowerneck 0.728149 -1.97974 -3.35213
upperneck 3.40209 -2.88886 8.41156
head 1.14347 -1.4029 3.27482
rclavicle 7.95139e-015 5.56597e-015
rhumerus -44.9161 28.225 -89.8364
rradius 88.7976
rwrist 1.81523
rhand -20.8999 22.139
rfingers 7.12502
rthumb 5.47098 -7.77042
lclavicle 7.95139e-015 5.56597e-015
lhumerus -24.1873 -1.26476 73.5102
lradius 100.134
lwrist 212.917
lhand -39.5097 21.1797
lfingers 7.12502
lthumb -12.4951 50.7861
rfemur 1.31513 0.176312 25.4631
rtibia 40.7348
rfoot -11.033 2.33083
rtoes -45.4947
lfemur -1.03445 -1.11451 -11.9052
ltibia 46.4052
lfoot 7.2599 -10.59
ltoes -38.3824
20
root 1.54847 18.242 19.5301 719.85 7.09008 -2.17958
lowerback -8.44766 -3.7824 -3.69646
upperback -0.902035 -4.68134 -0.00529532
thorax 4.08589 -2.37829 1.49935
lowerneck 1.75106 -1.95144 -3.15458
upperneck 3.53129 -2.87077 8.41357
head 0.999508 -1.41178 3.24735
rclavicle 1.71949e-014 0
rhumerus -45.0589 28.5022 -89.3173
rradius 91.5974
rwrist 1.84195
rhand -19.1482 20.8891
rfingers 7.12502
rthumb 7.16208 -8.96974
lclavicle 1.71949e-014 0
lhumerus -23.9007 -1.57324 72.8594
lradius 102.86
lwrist 213.467
lhand -39.278 21.2169
lfingers 7.12502
lthumb -12.2718 50.8368
rfemur 1.67709 1.89795 26.5782
rtibia 39.326
rfoot -7.01646 1.03955
rtoes -48.7879
lfemur -1.40291 -1.41295 -11.4616
ltibia 45.9064
lfoot 11.2849 -11.0652
ltoes -40.0901
21
root 1.51814 18.5477 19.7635 720.209 7.48738 -2.44776
lowerback -9.38895 -4.0031 -3.6985
upperback -0.989727 -4.93431 0.037964
thorax 4.53764 -2.50538 1.45023
lowerneck 2.23077 -1.93364 -2.82183
upperneck 3.72464 -2.85453 8.22948
head 0.96634 -1.40777 3.1257
rclavicle 1.28713e-014 -1.59028e-015
rhumerus -44.7562 28.7231 -88.6125
rradius 94.2981
rwrist 1.93511
rhand -17.3172 19.5129
rfingers 7.12502
rthumb 8.92922 -10.2781
lclavicle 1.28713e-014 -1.59028e-015
lhumerus -23.4303 -1.55598 72.192
lradius 105.308
lwrist 213.955
lhand -38.7292 21.601
lfingers 7.12502
lthumb -11.7426 51.2519
rfemur 1.67025 3.5456 27.62
rtibia 38.4643
rfoot -3.1846 0.115215
rtoes -51.1218
lfemur -2.28215 -1.64533 -11.0275
ltibia 46.2049
lfoot 14.069 -11.5791
ltoes -41.047
22
root 1.48999 18.8353 19.9806 720.557 7.88991 -2.75821
lowerback -10.1899 -4.20943 -3.58147
upperback -1.05686 -5.18615 0.0545346
thorax 4.91893 -2.62823 1.31091
lowerneck 2.76051 -1.92599 -2.40729
upperneck 3.75553 -2.83483 7.98665
head 0.870515 -1.40482 2.97007
rclavicle 4.85532e-014 1.31198e-014
rhumerus -44.3799 28.5687 -88.0065
rradius 96.5119
rwrist 2.54201
rhand -15.855 18.8984
rfingers 7.12502
rthumb 10.34 -10.8274
lclavicle 4.85532e-014 1.31198e-014
lhumerus -23.0849 -1.41573 71.5478
lradius 107.466
lwrist 214.61
lhand -37.8914 21.5169
lfingers 7.12502
lthumb -10.9345 51.2121
rfemur 1.34326 4.49239 28.4377
rtibia 38.1398
rfoot 0.106501 0.0752713
rtoes -52.8658
lfemur -3.54874 -1.82862 -10.5581
ltibia 47.1862
lfoot 16.0047 -11.9292
ltoes -40.6017
23
root 1.46262 19.1135 20.1872 720.889 8.28674 -3.02323
lowerback -10.8838 -4.41391 -3.51869
upperback -0.983799 -5.43485 0.0845724
thorax 5.39281 -2.75244 1.21207
lowerneck 2.88396 -1.91808 -2.14308
upperneck 3.80333 -2.81929 7.889
head 0.857032 -1.39584 2.88875
rclavicle 6.14742e-014 -2.38542e-015
rhumerus -43.7167 28.4114 -87.2807
rradius 98.1955
rwrist 3.6968
rhand -15.5506 19.0335
rfingers 7.12502
rthumb 10.6337 -10.6774
lclavicle 6.14742e-014 -2.38542e-015
lhumerus -22.59 -1.05939 70.9271
lradius 109.299
lwrist 215.281
lhand -36.9937 21.5452
lfingers 7.12502
lthumb -10.0685 51.2843
rfemur 0.716858 5.06907 29.0471
rtibia 38.3496
rfoot 2.93016 0.595878
rtoes -53.3848
lfemur -5.01402 -1.94716 -10.1625
ltibia 48.6274
lfoot 17.3292 -12.0877
ltoes -38.8167
24
root 1.43877 19.3831 20.3854 721.19 8.68201 -3.24707
lowerback -11.4649 -4.59964 -3.44344
upperback -0.679449 -5.66357 0.0957512
thorax 6.04447 -2.86932 1.08222
lowerneck 2.24393 -1.94011 -1.82265
upperneck 3.95754 -2.8511 7.78927
head 1.01147 -1.3915 2.78891
rclavicle 4.10987e-014 6.36111e-015
rhumerus -42.5356 28.0872 -86.3855
rradius 99.4859
rwrist 4.83644
rhand -16.0207 19.6338
rfingers 7.12502
rthumb 10.1802 -10.0999
lclavicle 4.10987e-014 6.36111e-015
lhumerus -21.8062 -0.549448 70.3995
lradius 110.87
lwrist 215.856
lhand -36.1538 21.5747
lfingers 7.12502
lthumb -9.25819 51.3514
rfemur -0.173179 5.41159 29.5174
rtibia 39.0294
rfoot 5.48479 1.38982
rtoes -52.7381
lfemur -6.56544 -2.07186 -9.86496
ltibia 50.3354
lfoot 18.2243 -12.1105
ltoes -35.9542
25
root 1.4151 19.6426 20.5705 721.464 9.00017 -3.41451
lowerback -11.7676 -4.72826 -3.38529
upperback -0.396087 -5.82684 0.0899656
thorax 6.51653 -2.95236 0.975297
lowerneck 1.5692 -1.9713 -1.61968
upperneck 4.1489 -2.90812 7.836
head 1.19039 -1.39847 2.76097
rclavicle 4.27387e-014 -3.97569e-015
rhumerus -41.431 27.7086 -85.5507
rradius 100.63
rwrist 5.34633
rhand -16.2019 19.8364
rfingers 7.12502
rthumb 10.0053 -9.90581
lclavicle 4.27387e-014 -3.97569e-015
lhumerus -21.2008 -0.131461 70.015
lradius 112.268
lwrist 216.192
lhand -35.4313 21.864
lfingers 7.12502
lthumb -8.56104 51.6704
rfemur -1.31655 5.57484 29.8444
rtibia 40.119
rfoot 7.62398 2.21406
rtoes -51.2549
lfemur -8.17162 -2.03297 -9.65546
ltibia 52.132
lfoot 18.9465 -12.0602
ltoes -32.1702
26
root 1.39079 19.8903 20.7442 721.629 9.2662 -3.27322
lowerback -11.6404 -4.84148 -3.60831
upperback -0.140127 -5.9449 0.00278785
thorax 6.73746 -3.02009 0.981824
lowerneck 0.92163 -1.99185 -1.53754
upperneck 4.41552 -2.96364 7.99427
head 1.39434 -1.40352 2.79436
rclavicle 4.2043e-014 -3.97569e-015
rhumerus -40.5104 27.3624 -84.8898
rradius 101.555
rwrist 5.19492
rhand -15.6056 19.4825
rfingers 7.12502
rthumb 10.5806 -10.2312
lclavicle 4.2043e-014 -3.97569e-015
lhumerus -20.8787 0.271813 69.7539
lradius 113.347
lwrist 216.341
lhand -34.9961 22.8471
lfingers 7.12502
lthumb -8.14103 52.6703
rfemur -2.49784 5.2694 29.7064
rtibia 41.5543
rfoot 9.08121 3.1026
rtoes -49.5732
lfemur -9.63953 -1.79692 -9.85065
ltibia 53.8973
lfoot 19.2099 -12.1721
ltoes -29.8612
